<svg xmlns="http://www.w3.org/2000/svg" width="1024" height="1024" viewBox="0 0 1024 1024">
<g>
<path d="M 469.01 456.00 L 469.00 515.51 L 377.00 607.49 L 376.99 472.00 C376.98,397.47 376.70,335.49 376.37,334.25 L 375.77 332.00 L 308.63 331.93 C271.71,331.89 240.81,331.55 239.96,331.18 C238.83,330.68 245.99,323.15 267.25,302.50 C283.10,287.10 300.74,270.11 306.43,264.75 L 316.80 254.99 L 465.59 255.25 L 614.38 255.50 L 537.76 330.00 L 401.50 330.10 L 435.26 363.30 L 469.03 396.50 ZM 783.38 606.19 C783.11,606.64 761.39,607.00 735.13,607.00 C698.41,607.00 687.03,606.71 685.86,605.75 C684.40,604.54 668.79,587.75 627.63,543.12 C616.79,531.37 608.05,521.37 608.21,520.90 C608.72,519.42 655.24,470.00 656.13,470.00 C657.51,470.00 783.93,605.30 783.38,606.19 ZM 604.12 409.84 C603.92,410.20 592.16,422.27 578.00,436.67 L 552.26 462.83 L 511.28 421.17 C488.74,398.25 463.28,372.98 454.71,365.02 C444.65,355.67 439.55,350.28 440.31,349.80 C441.77,348.89 522.24,348.76 537.73,349.65 L 548.95 350.29 L 576.73 379.73 C592.00,395.92 604.33,409.47 604.12,409.84 ZM 418.00 722.15 L 418.00 744.00 L 399.00 744.00 L 399.00 647.00 L 418.00 647.00 L 418.00 682.10 L 421.50 679.43 C426.44,675.67 431.51,674.09 438.88,674.04 C447.90,673.98 452.72,675.72 458.15,680.98 C465.29,687.91 466.00,691.45 466.00,720.22 L 466.00 744.08 L 447.50 743.50 L 447.00 721.50 C446.44,696.88 445.88,694.59 439.64,691.63 C432.67,688.33 424.51,690.54 420.27,696.90 C418.08,700.17 418.00,701.09 418.00,722.15 ZM 632.00 742.92 C625.42,745.90 614.17,745.77 607.50,742.62 C601.68,739.88 598.70,736.93 596.55,731.77 C594.58,727.06 594.58,721.94 596.55,717.23 C600.79,707.07 610.57,703.00 630.72,703.00 C637.98,703.00 640.19,702.68 640.62,701.54 C641.53,699.17 639.06,693.19 636.27,690.99 C630.30,686.30 621.40,687.20 615.83,693.06 L 612.16 696.92 L 605.33 694.59 C597.73,692.00 597.30,691.11 601.05,685.63 C606.06,678.32 616.11,674.08 628.57,674.03 C642.51,673.98 651.42,678.26 656.28,687.35 C658.38,691.28 658.52,692.86 658.81,717.75 L 659.12 744.00 L 641.00 744.00 L 641.00 736.65 L 638.75 738.76 C637.51,739.93 634.47,741.79 632.00,742.92 ZM 301.88 742.74 C274.57,752.82 248.02,733.02 251.50,705.17 C253.80,686.76 265.84,675.26 283.90,674.21 C298.09,673.39 308.15,678.51 314.21,689.65 C317.05,694.87 319.35,705.56 318.83,711.09 L 318.50 714.50 L 294.19 714.77 L 269.88 715.04 L 270.56 717.27 C274.77,730.91 290.04,735.14 300.04,725.44 L 303.57 722.01 L 310.51 726.47 L 317.45 730.93 L 312.35 735.85 C309.17,738.91 305.23,741.51 301.88,742.74 ZM 724.00 722.15 L 724.00 744.00 L 705.00 744.00 L 705.00 675.00 L 723.00 675.00 L 723.00 683.17 L 727.03 679.98 C731.98,676.05 738.51,674.00 746.03,674.00 C756.64,674.00 764.50,678.55 769.34,687.50 C771.37,691.26 771.52,693.06 771.81,717.79 L 772.12 744.08 L 762.81 743.79 L 753.50 743.50 L 753.31 721.70 C753.15,702.54 752.90,699.52 751.28,696.70 C746.18,687.87 732.23,687.98 726.27,696.90 C724.08,700.17 724.00,701.09 724.00,722.15 ZM 519.00 664.00 L 519.00 744.00 L 499.00 744.00 L 499.00 664.00 L 469.00 664.00 L 469.00 647.00 L 549.00 647.00 L 549.00 664.00 ZM 231.00 664.00 L 231.00 744.00 L 211.00 744.00 L 211.00 664.00 L 181.00 664.00 L 181.00 647.00 L 260.00 647.00 L 260.00 664.00 ZM 375.63 742.85 C361.02,748.29 345.79,745.03 336.05,734.36 C329.59,727.30 327.00,720.36 327.00,710.14 C327.00,699.90 329.11,693.16 334.34,686.73 C343.06,676.01 359.28,671.32 373.41,675.43 C379.51,677.21 386.03,682.31 389.27,687.86 L 391.05 690.89 L 386.77 693.34 C386.28,693.62 385.81,693.89 385.37,694.14 C380.23,697.09 378.24,698.23 376.68,697.81 C375.56,697.51 374.65,696.40 372.96,694.59 C369.27,690.64 368.93,690.50 362.82,690.50 C357.75,690.50 355.83,690.97 353.13,692.90 C343.58,699.71 343.62,720.12 353.19,725.99 C361.11,730.85 367.58,730.35 373.49,724.45 C375.38,722.55 377.18,721.00 377.49,721.00 C378.33,721.00 391.00,729.11 391.00,729.65 C391.00,729.91 388.70,732.56 385.88,735.53 C382.39,739.23 379.13,741.55 375.63,742.85 ZM 567.01 725.25 L 567.00 744.00 L 549.22 744.00 L 548.51 719.75 C548.11,706.41 547.95,691.00 548.14,685.50 L 548.50 675.50 L 567.00 674.92 L 567.00 684.25 L 571.40 680.20 C576.00,675.95 580.97,674.01 587.25,674.01 L 591.00 674.00 L 591.00 691.87 L 587.71 691.34 C579.85,690.07 569.97,695.83 568.03,702.83 C567.47,704.85 567.01,714.94 567.01,725.25 ZM 692.00 675.00 L 692.00 744.00 L 673.00 744.00 L 673.00 675.00 ZM 270.44 700.25 L 269.78 703.00 L 285.39 703.00 C297.22,703.00 300.99,702.70 300.98,701.75 C300.92,698.60 296.82,691.86 293.81,689.96 C285.58,684.80 272.77,690.43 270.44,700.25 ZM 619.50 730.61 C623.85,732.51 627.00,732.29 631.98,729.75 C637.19,727.09 639.65,723.92 640.58,718.66 L 641.26 714.81 L 630.70 715.16 C618.40,715.56 614.74,717.28 614.18,722.91 C613.81,726.64 615.29,728.78 619.50,730.61 ZM 692.00 647.00 L 692.00 664.00 L 673.00 664.00 L 673.00 647.00 Z" fill="rgb(7,45,105)"/>
<path d="M 530.58 586.74 L 511.50 606.98 L 469.25 606.99 C446.01,607.00 427.00,606.64 427.00,606.21 C427.00,605.77 434.96,597.78 444.68,588.46 C454.41,579.13 493.63,539.55 531.85,500.50 C570.07,461.45 612.64,418.25 626.44,404.50 C647.18,383.84 743.10,290.12 772.38,261.92 L 780.26 254.33 L 764.88 252.51 C745.49,250.22 744.40,249.87 750.13,247.73 C765.00,242.19 845.34,215.01 845.73,215.40 C845.99,215.66 844.39,221.64 842.18,228.68 C837.60,243.29 829.70,269.11 824.66,285.92 L 821.24 297.34 L 812.72 281.82 L 810.01 284.66 C808.52,286.22 797.44,298.31 785.40,311.53 C688.31,418.05 659.58,449.28 612.44,499.50 C605.21,507.20 588.13,525.42 574.48,540.00 C560.83,554.58 541.07,575.61 530.58,586.74 ZM 816.69 727.53 L 803.88 744.00 L 793.94 744.00 C788.47,744.00 784.00,743.61 784.00,743.13 C784.00,742.65 791.69,732.45 801.09,720.47 C810.49,708.49 818.41,698.11 818.68,697.39 C818.95,696.68 811.04,685.29 801.09,672.09 C791.14,658.89 783.00,647.84 783.00,647.54 C783.00,647.24 788.32,647.00 794.81,647.00 L 806.63 647.00 L 818.40 663.00 C824.88,671.79 830.52,679.21 830.94,679.46 C831.36,679.72 837.44,672.53 844.45,663.47 L 857.19 647.00 L 878.18 647.00 L 872.87 653.75 C862.31,667.18 842.00,694.02 842.00,694.54 C842.00,695.12 855.05,712.54 869.21,730.87 C874.05,737.13 878.00,742.64 878.00,743.12 C878.00,743.61 872.82,744.00 866.50,744.00 L 855.00 744.00 L 842.75 727.51 C836.01,718.44 830.28,711.03 830.00,711.04 C829.72,711.06 823.74,718.48 816.69,727.53 Z" fill="rgb(246,82,8)"/>
<path d="M 0.00 512.00 L 0.00 0.00 L 512.00 0.00 L 1024.00 0.00 L 1024.00 512.00 L 1024.00 1024.00 L 512.00 1024.00 L 0.00 1024.00 L 0.00 512.00 ZM 301.88 742.74 C305.23,741.51 309.17,738.91 312.35,735.85 L 317.45 730.93 L 310.51 726.47 L 303.57 722.01 L 300.04 725.44 C290.04,735.14 274.77,730.91 270.56,717.27 L 269.88 715.04 L 294.19 714.77 L 318.50 714.50 L 318.83 711.09 C319.35,705.56 317.05,694.87 314.21,689.65 C308.15,678.51 298.09,673.39 283.90,674.21 C265.84,675.26 253.80,686.76 251.50,705.17 C248.02,733.02 274.57,752.82 301.88,742.74 ZM 375.63 742.85 C379.13,741.55 382.39,739.23 385.88,735.53 C388.70,732.56 391.00,729.91 391.00,729.65 C391.00,729.11 378.33,721.00 377.49,721.00 C377.18,721.00 375.38,722.55 373.49,724.45 C367.58,730.35 361.11,730.85 353.19,725.99 C343.62,720.12 343.58,699.71 353.13,692.90 C355.83,690.97 357.75,690.50 362.82,690.50 C368.93,690.50 369.27,690.64 372.96,694.59 C377.22,699.16 376.49,699.22 386.77,693.34 L 391.05 690.89 L 389.27 687.86 C386.03,682.31 379.51,677.21 373.41,675.43 C359.28,671.32 343.06,676.01 334.34,686.73 C329.11,693.16 327.00,699.90 327.00,710.14 C327.00,720.36 329.59,727.30 336.05,734.36 C345.79,745.03 361.02,748.29 375.63,742.85 ZM 632.00 742.92 C634.47,741.79 637.51,739.93 638.75,738.76 L 641.00 736.65 L 641.00 740.33 L 641.00 744.00 L 650.06 744.00 L 659.12 744.00 L 658.81 717.75 C658.52,692.86 658.38,691.28 656.28,687.35 C651.42,678.26 642.51,673.98 628.57,674.03 C616.11,674.08 606.06,678.32 601.05,685.63 C597.30,691.11 597.73,692.00 605.33,694.59 L 612.16 696.92 L 615.83 693.06 C621.40,687.20 630.30,686.30 636.27,690.99 C639.06,693.19 641.53,699.17 640.62,701.54 C640.19,702.68 637.98,703.00 630.72,703.00 C610.57,703.00 600.79,707.07 596.55,717.23 C594.58,721.94 594.58,727.06 596.55,731.77 C598.70,736.93 601.68,739.88 607.50,742.62 C614.17,745.77 625.42,745.90 632.00,742.92 ZM 231.00 704.00 L 231.00 664.00 L 245.50 664.00 L 260.00 664.00 L 260.00 655.50 L 260.00 647.00 L 220.50 647.00 L 181.00 647.00 L 181.00 655.50 L 181.00 664.00 L 196.00 664.00 L 211.00 664.00 L 211.00 704.00 L 211.00 744.00 L 221.00 744.00 L 231.00 744.00 L 231.00 704.00 ZM 418.00 722.15 C418.00,701.09 418.08,700.17 420.27,696.90 C424.51,690.54 432.67,688.33 439.64,691.63 C445.88,694.59 446.44,696.88 447.00,721.50 L 447.50 743.50 L 456.75 743.79 L 466.00 744.08 L 466.00 720.22 C466.00,691.45 465.29,687.91 458.15,680.98 C452.72,675.72 447.90,673.98 438.88,674.04 C431.51,674.09 426.44,675.67 421.50,679.43 L 418.00 682.10 L 418.00 664.55 L 418.00 647.00 L 408.50 647.00 L 399.00 647.00 L 399.00 695.50 L 399.00 744.00 L 408.50 744.00 L 418.00 744.00 L 418.00 722.15 ZM 519.00 704.00 L 519.00 664.00 L 534.00 664.00 L 549.00 664.00 L 549.00 655.50 L 549.00 647.00 L 509.00 647.00 L 469.00 647.00 L 469.00 655.50 L 469.00 664.00 L 484.00 664.00 L 499.00 664.00 L 499.00 704.00 L 499.00 744.00 L 509.00 744.00 L 519.00 744.00 L 519.00 704.00 ZM 567.01 725.25 C567.01,714.94 567.47,704.85 568.03,702.83 C569.97,695.83 579.85,690.07 587.71,691.34 L 591.00 691.87 L 591.00 682.94 L 591.00 674.00 L 587.25 674.01 C580.97,674.01 576.00,675.95 571.40,680.20 L 567.00 684.25 L 567.00 679.59 L 567.00 674.92 L 557.75 675.21 L 548.50 675.50 L 548.14 685.50 C547.95,691.00 548.11,706.41 548.51,719.75 L 549.22 744.00 L 558.11 744.00 L 567.00 744.00 L 567.01 725.25 ZM 692.00 709.50 L 692.00 675.00 L 682.50 675.00 L 673.00 675.00 L 673.00 709.50 L 673.00 744.00 L 682.50 744.00 L 692.00 744.00 L 692.00 709.50 ZM 724.00 722.15 C724.00,701.09 724.08,700.17 726.27,696.90 C732.23,687.98 746.18,687.87 751.28,696.70 C752.90,699.52 753.15,702.54 753.31,721.70 L 753.50 743.50 L 762.81 743.79 L 772.12 744.08 L 771.81 717.79 C771.52,693.06 771.37,691.26 769.34,687.50 C764.50,678.55 756.64,674.00 746.03,674.00 C738.51,674.00 731.98,676.05 727.03,679.98 L 723.00 683.17 L 723.00 679.08 L 723.00 675.00 L 714.00 675.00 L 705.00 675.00 L 705.00 709.50 L 705.00 744.00 L 714.50 744.00 L 724.00 744.00 L 724.00 722.15 ZM 816.69 727.53 C823.74,718.48 829.72,711.06 830.00,711.04 C830.28,711.03 836.01,718.44 842.75,727.51 L 855.00 744.00 L 866.50 744.00 C872.82,744.00 878.00,743.61 878.00,743.12 C878.00,742.64 874.05,737.13 869.21,730.87 C855.05,712.54 842.00,695.12 842.00,694.54 C842.00,694.02 862.31,667.18 872.87,653.75 L 878.18 647.00 L 867.69 647.00 L 857.19 647.00 L 844.45 663.47 C837.44,672.53 831.36,679.72 830.94,679.46 C830.52,679.21 824.88,671.79 818.40,663.00 L 806.63 647.00 L 794.81 647.00 C788.32,647.00 783.00,647.24 783.00,647.54 C783.00,647.84 791.14,658.89 801.09,672.09 C811.04,685.29 818.95,696.68 818.68,697.39 C818.41,698.11 810.49,708.49 801.09,720.47 C791.69,732.45 784.00,742.65 784.00,743.13 C784.00,743.61 788.47,744.00 793.94,744.00 L 803.88 744.00 L 816.69 727.53 ZM 692.00 655.50 L 692.00 647.00 L 682.50 647.00 L 673.00 647.00 L 673.00 655.50 L 673.00 664.00 L 682.50 664.00 L 692.00 664.00 L 692.00 655.50 ZM 469.01 456.00 L 469.03 396.50 L 435.26 363.30 L 401.50 330.10 L 469.63 330.05 L 537.76 330.00 L 576.07 292.75 L 614.38 255.50 L 465.59 255.25 L 316.80 254.99 L 306.43 264.75 C300.74,270.11 283.10,287.10 267.25,302.50 C245.99,323.15 238.83,330.68 239.96,331.18 C240.81,331.55 271.71,331.89 308.63,331.93 L 375.77 332.00 L 376.37 334.25 C376.70,335.49 376.98,397.47 376.99,472.00 L 377.00 607.49 L 423.00 561.50 L 469.00 515.51 L 469.01 456.00 ZM 530.58 586.74 C541.07,575.61 560.83,554.58 574.48,540.00 C588.13,525.42 605.21,507.20 612.44,499.50 C659.58,449.28 688.31,418.05 785.40,311.53 C797.44,298.31 808.52,286.22 810.01,284.66 L 812.72 281.82 L 816.98 289.58 L 821.24 297.34 L 824.66 285.92 C829.70,269.11 837.60,243.29 842.18,228.68 C844.39,221.64 845.99,215.66 845.73,215.40 C845.34,215.01 765.00,242.19 750.13,247.73 C744.40,249.87 745.49,250.22 764.88,252.51 L 780.26 254.33 L 772.38 261.92 C743.10,290.12 647.18,383.84 626.44,404.50 C612.64,418.25 570.07,461.45 531.85,500.50 C493.63,539.55 454.41,579.13 444.68,588.46 C434.96,597.78 427.00,605.77 427.00,606.21 C427.00,606.64 446.01,607.00 469.25,606.99 L 511.50 606.98 L 530.58 586.74 ZM 783.38 606.19 C783.93,605.30 657.51,470.00 656.13,470.00 C655.24,470.00 608.72,519.42 608.21,520.90 C608.05,521.37 616.79,531.37 627.63,543.12 C668.79,587.75 684.40,604.54 685.86,605.75 C687.03,606.71 698.41,607.00 735.13,607.00 C761.39,607.00 783.11,606.64 783.38,606.19 ZM 604.12 409.84 C604.33,409.47 592.00,395.92 576.73,379.73 L 548.95 350.29 L 537.73 349.65 C522.24,348.76 441.77,348.89 440.31,349.80 C439.55,350.28 444.65,355.67 454.71,365.02 C463.28,372.98 488.74,398.25 511.28,421.17 L 552.26 462.83 L 578.00 436.67 C592.16,422.27 603.92,410.20 604.12,409.84 ZM 270.44 700.25 C272.77,690.43 285.58,684.80 293.81,689.96 C296.82,691.86 300.92,698.60 300.98,701.75 C300.99,702.70 297.22,703.00 285.39,703.00 L 269.78 703.00 L 270.44 700.25 ZM 619.50 730.61 C615.29,728.78 613.81,726.64 614.18,722.91 C614.74,717.28 618.40,715.56 630.70,715.16 L 641.26 714.81 L 640.58 718.66 C639.65,723.92 637.19,727.09 631.98,729.75 C627.00,732.29 623.85,732.51 619.50,730.61 Z" fill="rgb(250,248,251)"/>
</g>
</svg>